<svg width="800" height="500" viewBox="0 0 800 500" fill="none" xmlns="http://www.w3.org/2000/svg">
  <!-- Background -->
  <rect width="800" height="500" fill="#f8fafc"/>
  
  <!-- Dashboard Container -->
  <rect x="50" y="50" width="700" height="400" rx="12" fill="white" stroke="#e2e8f0" stroke-width="2"/>
  
  <!-- Header -->
  <rect x="70" y="70" width="660" height="60" fill="#0f172a"/>
  <text x="90" y="105" fill="white" font-family="Arial" font-size="18" font-weight="bold">StudyAI - CBSE Board Exam Predictor</text>
  
  <!-- Navigation -->
  <rect x="70" y="140" width="100" height="30" rx="4" fill="#0ea5e9"/>
  <text x="85" y="158" fill="white" font-family="Arial" font-size="12">Dashboard</text>
  
  <rect x="180" y="140" width="100" height="30" rx="4" fill="#e2e8f0"/>
  <text x="195" y="158" fill="#64748b" font-family="Arial" font-size="12">Predictions</text>
  
  <rect x="290" y="140" width="100" height="30" rx="4" fill="#e2e8f0"/>
  <text x="315" y="158" fill="#64748b" font-family="Arial" font-size="12">Study Plan</text>
  
  <!-- Performance Cards -->
  <rect x="90" y="190" width="150" height="100" rx="8" fill="#dbeafe" stroke="#0ea5e9"/>
  <text x="110" y="215" fill="#0ea5e9" font-family="Arial" font-size="14" font-weight="bold">Mathematics</text>
  <text x="110" y="235" fill="#1e293b" font-family="Arial" font-size="24" font-weight="bold">87%</text>
  <text x="110" y="255" fill="#64748b" font-family="Arial" font-size="12">Predicted Score</text>
  
  <rect x="260" y="190" width="150" height="100" rx="8" fill="#dcfce7" stroke="#22c55e"/>
  <text x="280" y="215" fill="#22c55e" font-family="Arial" font-size="14" font-weight="bold">Physics</text>
  <text x="280" y="235" fill="#1e293b" font-family="Arial" font-size="24" font-weight="bold">82%</text>
  <text x="280" y="255" fill="#64748b" font-family="Arial" font-size="12">Predicted Score</text>
  
  <rect x="430" y="190" width="150" height="100" rx="8" fill="#fef3c7" stroke="#f59e0b"/>
  <text x="450" y="215" fill="#f59e0b" font-family="Arial" font-size="14" font-weight="bold">Chemistry</text>
  <text x="450" y="235" fill="#1e293b" font-family="Arial" font-size="24" font-weight="bold">79%</text>
  <text x="450" y="255" fill="#64748b" font-family="Arial" font-size="12">Predicted Score</text>
  
  <!-- Chart Area -->
  <rect x="90" y="310" width="490" height="120" rx="8" fill="#f8fafc" stroke="#e2e8f0"/>
  <text x="110" y="335" fill="#1e293b" font-family="Arial" font-size="14" font-weight="bold">Performance Trend</text>
  
  <!-- Simple Chart Lines -->
  <polyline points="110,380 150,360 190,340 230,350 270,330 310,320 350,310 390,300 430,290 470,280 510,270 550,260" 
            fill="none" stroke="#0ea5e9" stroke-width="3"/>
  <polyline points="110,390 150,385 190,375 230,380 270,370 310,365 350,360 390,355 430,350 470,345 510,340 550,335" 
            fill="none" stroke="#22c55e" stroke-width="3"/>
  
  <!-- AI Badge -->
  <rect x="600" y="190" width="120" height="40" rx="20" fill="#8b5cf6"/>
  <text x="620" y="215" fill="white" font-family="Arial" font-size="12" font-weight="bold">🤖 AI Powered</text>
</svg>